/* XPM */
static char * mercy_xpm[] = {
"64 23 312 2",
"  	c #FF8A02",
". 	c #FF8901",
"+ 	c #FE8902",
"@ 	c #FE8901",
"# 	c #5E3109",
"$ 	c #512505",
"% 	c #6E3808",
"& 	c #FC8902",
"* 	c #FE8A02",
"= 	c #3A1C03",
"- 	c #000000",
"; 	c #522B02",
"> 	c #FD8802",
", 	c #010101",
"' 	c #010100",
") 	c #060002",
"! 	c #000102",
"~ 	c #010001",
"{ 	c #030002",
"] 	c #040101",
"^ 	c #000003",
"/ 	c #030100",
"( 	c #070201",
"_ 	c #000001",
": 	c #010000",
"< 	c #030101",
"[ 	c #050101",
"} 	c #020101",
"| 	c #040103",
"1 	c #020102",
"2 	c #000101",
"3 	c #AD5C05",
"4 	c #FA880A",
"5 	c #FB8905",
"6 	c #F38506",
"7 	c #76420A",
"8 	c #000100",
"9 	c #442305",
"0 	c #DC7807",
"a 	c #FA8907",
"b 	c #794007",
"c 	c #291202",
"d 	c #F88909",
"e 	c #F58706",
"f 	c #030102",
"g 	c #5A2E05",
"h 	c #E57E0A",
"i 	c #F68608",
"j 	c #7A420A",
"k 	c #9F580E",
"l 	c #FA8905",
"m 	c #D67709",
"n 	c #381D09",
"o 	c #D47407",
"p 	c #C36905",
"q 	c #5B3005",
"r 	c #FA8806",
"s 	c #603704",
"t 	c #B15D00",
"u 	c #FD8A07",
"v 	c #F28407",
"w 	c #924C04",
"x 	c #D57407",
"y 	c #7D4004",
"z 	c #2A1301",
"A 	c #FC8803",
"B 	c #FF8902",
"C 	c #F98803",
"D 	c #8C4902",
"E 	c #FE8903",
"F 	c #BD6604",
"G 	c #DA7504",
"H 	c #5B2F02",
"I 	c #D97504",
"J 	c #C66903",
"K 	c #5C3402",
"L 	c #623701",
"M 	c #854909",
"N 	c #AB5D0A",
"O 	c #220F02",
"P 	c #200F06",
"Q 	c #AF6009",
"R 	c #974F06",
"S 	c #ED8004",
"T 	c #904C07",
"U 	c #934B02",
"V 	c #924B03",
"W 	c #C66C06",
"X 	c #F78502",
"Y 	c #F38304",
"Z 	c #F08202",
"` 	c #FA8602",
" .	c #020205",
"..	c #C36D12",
"+.	c #B2630B",
"@.	c #020303",
"#.	c #723E06",
"$.	c #F4870C",
"%.	c #7A4209",
"&.	c #E77B02",
"*.	c #030003",
"=.	c #020308",
"-.	c #F98805",
";.	c #824509",
">.	c #5E3506",
",.	c #E87E08",
"'.	c #FF8801",
").	c #DD7A08",
"!.	c #40260C",
"~.	c #9D5706",
"{.	c #FE8A04",
"].	c #120703",
"^.	c #BB6808",
"/.	c #B9630D",
"(.	c #040303",
"_.	c #5B2E03",
":.	c #D3740A",
"<.	c #7B440B",
"[.	c #010102",
"}.	c #DD7806",
"|.	c #FE8905",
"1.	c #DC7909",
"2.	c #F68602",
"3.	c #0A0201",
"4.	c #D87404",
"5.	c #C16A05",
"6.	c #5D2D01",
"7.	c #FE8904",
"8.	c #5B2F04",
"9.	c #D87506",
"0.	c #FF8903",
"a.	c #C66904",
"b.	c #5B3405",
"c.	c #633704",
"d.	c #321702",
"e.	c #BA6709",
"f.	c #B3620B",
"g.	c #D5750B",
"h.	c #83480A",
"i.	c #9D5405",
"j.	c #C0690B",
"k.	c #E87F09",
"l.	c #4B2909",
"m.	c #FF8905",
"n.	c #E77C02",
"o.	c #030103",
"p.	c #F68603",
"q.	c #0B0301",
"r.	c #D87405",
"s.	c #2B0F01",
"t.	c #773B03",
"u.	c #753B03",
"v.	c #231104",
"w.	c #7D460D",
"x.	c #F38305",
"y.	c #8A4C0E",
"z.	c #CA6E08",
"A.	c #FE8803",
"B.	c #CF7104",
"C.	c #2A1403",
"D.	c #3B1F06",
"E.	c #FC8906",
"F.	c #CD6F07",
"G.	c #050203",
"H.	c #9D5406",
"I.	c #B16003",
"J.	c #FE8804",
"K.	c #E37C08",
"L.	c #1E0C02",
"M.	c #F58503",
"N.	c #CC6F04",
"O.	c #CD6E03",
"P.	c #C96D09",
"Q.	c #FC8805",
"R.	c #CD6E04",
"S.	c #EF8104",
"T.	c #331A02",
"U.	c #CE7008",
"V.	c #FD8A06",
"W.	c #F38509",
"X.	c #733E04",
"Y.	c #965108",
"Z.	c #CF6E05",
"`.	c #040104",
" +	c #7D4704",
".+	c #B86203",
"++	c #A45807",
"@+	c #FA8802",
"#+	c #BC6607",
"$+	c #0C0503",
"%+	c #D47306",
"&+	c #F38405",
"*+	c #794105",
"=+	c #432504",
"-+	c #D7760A",
";+	c #D17005",
">+	c #F38307",
",+	c #724006",
"'+	c #F68504",
")+	c #D27003",
"!+	c #D27002",
"~+	c #CD6F05",
"{+	c #F78504",
"]+	c #CB6F09",
"^+	c #341B06",
"/+	c #A75802",
"(+	c #E97D04",
"_+	c #391D04",
":+	c #C46D0F",
"<+	c #A55A09",
"[+	c #060204",
"}+	c #AF6007",
"|+	c #C76F09",
"1+	c #030203",
"2+	c #040204",
"3+	c #020103",
"4+	c #F88604",
"5+	c #9E560D",
"6+	c #020204",
"7+	c #230E01",
"8+	c #653601",
"9+	c #643601",
"0+	c #1F0D03",
"a+	c #9E5406",
"b+	c #A75905",
"c+	c #020104",
"d+	c #5F2F03",
"e+	c #D5760B",
"f+	c #754006",
"g+	c #F98703",
"h+	c #A3580C",
"i+	c #EF8306",
"j+	c #FB8908",
"k+	c #904F06",
"l+	c #5C2E02",
"m+	c #FC8908",
"n+	c #FD8906",
"o+	c #572F02",
"p+	c #000005",
"q+	c #D6770A",
"r+	c #572B03",
"s+	c #723C06",
"t+	c #EE830D",
"u+	c #000207",
"v+	c #010104",
"w+	c #010002",
"x+	c #663608",
"y+	c #ED7F05",
"z+	c #DB7806",
"A+	c #3C230A",
"B+	c #9D5506",
"C+	c #5A2F02",
"D+	c #020001",
"E+	c #A25A08",
"F+	c #C86B06",
"G+	c #241304",
"H+	c #CE7006",
"I+	c #A45907",
"J+	c #ED8003",
"K+	c #894A05",
"L+	c #8B4701",
"M+	c #8B4802",
"N+	c #C26B0A",
"O+	c #ED8005",
"P+	c #F88603",
"Q+	c #613305",
"R+	c #703B05",
"S+	c #703B03",
"T+	c #633303",
"U+	c #FD8903",
"V+	c #B05D05",
"W+	c #FB8A08",
"X+	c #FC8A04",
"Y+	c #9B5306",
"Z+	c #1D0D03",
"`+	c #7B3F05",
" @	c #291201",
".@	c #FA8807",
"+@	c #F68807",
"@@	c #020201",
"#@	c #8B4A05",
"$@	c #FB8906",
"%@	c #F48606",
"&@	c #0C0302",
"*@	c #D67406",
"=@	c #FC8904",
"-@	c #BB6608",
";@	c #A45808",
">@	c #DB7706",
",@	c #3B1D03",
"'@	c #A65903",
")@	c #E77E08",
"!@	c #0F0401",
"~@	c #180701",
"{@	c #180601",
"]@	c #180703",
"^@	c #100301",
"/@	c #190802",
"(@	c #1A0601",
"_@	c #090401",
":@	c #170701",
"<@	c #150503",
"[@	c #170801",
"}@	c #120403",
"|@	c #0D0303",
"1@	c #100503",
"2@	c #190603",
"3@	c #552C06",
"4@	c #422403",
"5@	c #653807",
"6@	c #FC8903",
"7@	c #FE8A05",
"  . . . . . . . . . . . . . . . . . . . . . . . . . . . . . . . . . . . . . . . . . . . . . . . . . . . . . . . . . . . . . . + ",
"@ # $ $ $ $ $ $ $ $ $ $ $ $ $ $ $ $ $ $ $ $ $ $ $ $ $ $ $ $ $ $ $ $ $ $ $ $ $ $ $ $ $ $ $ $ $ $ $ $ $ $ $ $ $ $ $ $ $ $ $ $ % & ",
"* = - - - - - - - - - - - - - - - - - - - - - - - - - - - - - - - - - - - - - - - - - - - - - - - - - - - - - - - - - - - - ; > ",
"* = - - - - - - - - - - - - - - , , ' ) ! - ~ { ' ' ] ^ / ' ' ' ' ' ' ( _ : ] ' ' ' ' < ! - [ ' ' ' ' } | ' [ ' ' - 1 1 2 } ; > ",
"* = - - - - - - - - - - - - - - 3 4 5 6 7 8 9 0 5 a b c d 5 5 5 5 5 5 e f g h 5 5 5 5 i j - k 5 5 5 5 l m n o 5 p ~ q r r s ; > ",
"* = - - , ~ - - - - - , _ - - - t u . . v w x . . . y z A . B @ . . . C 2 D E . . . . . F - G . . . . . + H I B J ~ K B E L ; > ",
"* = - : M N O : - - P Q R } - - t u . . . . . . . . y z A . S T U U V W 2 D E . X Y + . F - G . + Z ` . + H I B J ~ K B E L ; > ",
"* = - ~  ...+.@._ - #.$.%., - - t u . E . . . E . . y z A . &.*.- - , =., D E -.;.>.,.'.F - G . ).!.~.{.+ H I B J ~ K B E L ; > ",
"* = - - ~ ].^./.(._.:.<.[.- - - t u . }.|.. + 1.B . y z A . &.*.- - - - - D E 2.3.- 4.B F - G . 5.- 6.7.+ 8.9.0.a.1 b.E 7.c.; > ",
"* = - - - - d.e.f.g.h., - - - - t u . i.j.. k.l.m.. y z A . n.o.~ ~ ~ ~ : D E p.q.~ r.+ F - G . 5.- s.t.u.v.w.|.x.y.z.A.B.C.; > ",
"* = - - - - ~ D.E.F.G.- - - - - t u . H.I.J.K.L.m.. y z A . M.N.O.O.O.P.[.D E Q.R.O.S.@ F - G . 5.- - - - - T.U.J.E.V.W.X.! ; > ",
"* = - - - - } Y.E Z.`.- - - - - t u . H. +.+++L.m.. y z A . . . . . . @+2 D E . . . . + #+- G . 5.- - - - - ~ $+%+0.&+*+, - ; > ",
"* = - - - - =+-+;+>+,+, - - - - t u . H.- - - L.m.. y z A . '+)+!+!+!+~+, D E . . . {+]+^+- G . 5.- - - - - - 8 /+* (+2 - - ; > ",
"* = - - : _+:+<+[+}+|+1+- - - - t u . H.- - - L.m.. y z A . n.2+3+3+3+3+_ D E E > . 4+5+6+- G . 5.- 7+8+9+0+- - /+* (+2 - - ; > ",
"* = - - , a+b+c+- d+e+f+~ - - - t u . H.- - - L.m.. y z A . &.*.- - - - - D E g+h+i+B j+k+- G . 5.- l+m+n+o+- - /+* (+2 - - ; > ",
"* = - - p+q+r+- - [.s+t+u+- - - t u . H.- - - L.m.. y z A . &.*.- - , v+w+D E 2.q.x+y+. F - G . z+A+B+7.+ C+- - /+* (+2 - - ; > ",
"* = - D+E+F+~ - - - G+H+I+, - - t u . H.- - - L.m.. y z A . J+K+L+L+M+N+, D E 2.3.} r.'.F - G . E O+P+B + C+- - /+* (+2 - - ; > ",
"* = - ~ Q+R+- - - - , S+T+: - - t u . H.- - - L.m.. y z A . + U+E E E C 2 D E 2.3.- 4.B F - G . . . . . + C+- - /+* (+2 - - ; > ",
"* = - - - - - - - - - - - - - - V+W+X+Y+8 - - Z+E.X+`+ @.@X+X+X+X+X+X++@@@#@$@%@&@- *@=@-@- ;@X+X+X+X+=@>@,@- - '@X+)@1 - - ; > ",
"* = - - - - - - - - - - - - - - !@~@{@!@- - - D+{@]@^@~ /@{@{@{@{@{@{@(@w+_@~@:@~ - <@[@}@_ |@{@{@{@{@{@1@, - - q.~@2@~ - - ; > ",
"* = - - - - - - - - - - - - - - - - - - - - - - - - - - - - - - - - - - - - - - - - - - - - - - - - - - - - - - - - - - - - ; > ",
"@ 3@4@4@4@4@4@4@4@4@4@4@4@4@4@4@4@4@4@4@4@4@4@4@4@4@4@4@4@4@4@4@4@4@4@4@4@4@4@4@4@4@4@4@4@4@4@4@4@4@4@4@4@4@4@4@4@4@4@4@4@4@5@6@",
". 7@+ + + + + + + + + + + + + + + + + + + + + + + + + + + + + + + + + + + + + + + + + + + + + + + + + + + + + + + + + + + + E U+"};
