/* XPM */
static char * asriel_xpm[] = {
"64 64 13 1",
" 	c #000000",
".	c #FFFFFF",
"+	c #F2F2F2",
"@	c #49AE50",
"#	c #FFEE3B",
"$	c #1E201C",
"%	c #DADDDA",
"&	c #5DC456",
"*	c #5A5A5A",
"=	c #A1A1A1",
"-	c #BDC83A",
";	c #485F26",
">	c #EEEEEE",
"...>>...>>+..+>>...>>...>>+..+>>...>>...>>+..+>>...>>...>>+..+>>",
"...>>...>>+..+>>...>>...>>+..+>>...>>...>>+..+>>...>>...>>+..+>>",
"..++++..+++..+++..++++..+++%=======>++..+++..+++..++++..+++..+++",
">>+..+>>...>>...>>+..+>>...=       >.+>>...>>...>>+..+>>...>>...",
">>+..+>>...>>...>>+..+>%===============>...>>...>>+..+>>...>>...",
"..++++..+++..+++..++++.%   =.......*   ++++..+++..++++..+++..+++",
"...>>...>>+..+>>...>>%==%%%%.......%%%%==>+..+>>...>>...>>+..+>>",
"...>>...>>+..+>>...>>% =...............$$>+..+>>...>>...>>+..+>>",
">>+..+>>...>>...>>+>==%%...............%%==+>...>>+..+>>...>>...",
">>+..+>>...>>...>>+> *..................+ *+>...>>+..+>>...>>...",
"+++..+++..++++..+++% *..................+ *+++..+++..+++..++++..",
"...>>...>>+..+>>...% *..................+ *..+>>...>>...>>+..+>>",
"...>>...>>+..+>>.+**>>.....%*%...=*>.....>%*=+>>...>>...>>+..+>>",
"+++..+++..++++..+> *.......= =...= >......> *+..+++..+++..++++..",
">>+..+>>...>>...>> *.....%;=+....++=;>....> *...>>+..+>>...>>...",
">>+..+>>...>>...+>$*.....%$=.......*$>....>$*...>>+..+>>...>>...",
"...>>...>>+..+>+$;.....%$=.=$=...=$>.*$+....>$=>...>>...>>+..+>>",
"...>>...>>+..+>+$;.....%;=.= =...= >.*;+....> =>...>>...>>+..+>>",
"..++++..+++..+++$;.........= =...= >........> =+..++++..+++..+++",
">>+..+>>...>>...$;.........%*%...=*>........> =.>>+..+>>...>>...",
">>+..+>>...>>...$;..........................> =.>>+..+>>...>>...",
"..++++..+++..+++$;...+%>...............%%...> =+..++++..+++..+++",
"...>>...>>+..+>+$;...% =...............$$...> =>...>>...>>+..+>>",
"...>>...>>+..+>+$;...% =...>%>...%%+...$$...> =>...>>...>>+..+>>",
">>+..+>>...>>...$;...% =...= =...= >...$$...> =.>>+..+>>...>>...",
">>+..+>>...>>...==%%.>==%%.%==%%%==+.%%==.+%%=%.>>+..+>>...>>...",
"+++..+++..++++..+> *...% =...=   %...* +..> *+..+++..+++..++++..",
"...>>...>>+..+>>..===%.% *=%.%===>.%=* +.===%+>>...>>...>>+..+>>",
"...>>...>>+..+>>...% *.%   =.......*   ++ *..+>>...>>...>>+..+>>",
"+++..+++..++++..++++==== ;;=%%%%%%%@;$ ===%+++..+++..+++..++++..",
">>+..+>>...>>...>>+..%   ;@@@@@@@@@@@$  $..>>...>>+..+>>...>>...",
">>+..+>>...>>...>>+>==@&----@@@@@@@----@@==+>...>>+..+>>...>>...",
"...>>...>>+..+>>...% ;@-###-@@@@@@@####&@ *..+>>...>>...>>+..+>>",
"...>>...>>+..+>>.+==@@@@;---#######--;;@@@@==+>>...>>...>>+..+>>",
"..++++..+++..+++.+ $@@@@ ;@-#######&@$ @@@@ *+++..++++..+++..+++",
">>+..+>>...>>...>> ;###- ;@&&&&&&&&@@$ -##- *...>>+..+>>...>>...",
">>+..+>>...>>...+> ;###- ;@@@@@@@@@@@$ #### *...>>+..+>>...>>...",
"..++++..+++..+++**@@&&;-###############;;&&@@*=+..++++..+++..+++",
"...>>...>>+..+>+$$@@@@ -###############;$@@@@ =>...>>...>>+..+>>",
"...>>...>>+..+>+$$###- ;&&&&&&&&&&&&&&&$;###- =>...>>...>>+..+>>",
">>+..+>>...>>...$$###- ;@@@@@@@@@@@@@@@$;###- =.>>+..+>>...>>...",
">>+..+>>...>>...$      ;@@@@@@@@@@@@@@@$      =.>>+..+>>...>>...",
"+++..+++..++++..$$**** ;@@@@@@@@@@@@@@@$$**** =.+++..+++..++++..",
"...>>...>>+..+>+$;...%                  $...> =>...>>...>>+..+>>",
"...>>...>>+..+>+==>>>%                  $%>>%*=>...>>...>>+..+>>",
"+++..+++..++++..+>                          *...+++..+++..++++..",
">>+..+>>...>>...>>=====*               ======...>>+..+>>...>>...",
">>+..+>>...>>...>>+..+>%               >...>>...>>+..+>>...>>...",
"...>>...>>+..+>>...>>>%=               %%>+..+>>...>>...>>+..+>>",
"...>>...>>+..+>>...>>%                  $>+..+>>...>>...>>+..+>>",
"..++++..+++..+++..+>== *=====*   ======$$=%..+++..++++..+++..+++",
">>+..+>>...>>...>>+>   =.....=   %.....$  *+>...>>+..+>>...>>...",
">>+..+>>...>>...>>=====%...%=======+...%=====...>>+..+>>...>>...",
"..++++..+++..+++.+ *.......= =++.= >......> *+++..++++..+++..+++",
"...>>...>>+..+>>.+ ;========%%>>.%%======== *+>>...>>...>>+..+>>",
"...>>...>>+..+>>.+         =.+>>...*        *+>>...>>...>>+..+>>",
">>+..+>>...>>...>>%%%%%%%%%%>...>>+%%%%%%%%%%...>>+..+>>...>>...",
">>+..+>>...>>...>>+..+>>...>>...>>+..+>>...>>...>>+..+>>...>>...",
"+++..+++..++++..+++..+++..++++..+++..+++..++++..+++..+++..++++..",
"...>>...>>+..+>>...>>...>>+..+>>...>>...>>+..+>>...>>...>>+..+>>",
"...>>...>>+..+>>...>>...>>+..+>>...>>...>>+..+>>...>>...>>+..+>>",
"+++..+++..++++..+++..+++..++++..+++..+++..++++..+++..+++..++++..",
">>+..+>>...>>...>>+..+>>...>>...>>+..+>>...>>...>>+..+>>...>>...",
">>+..+>>...>>...>>+..+>>...>>...>>+..+>>...>>...>>+..+>>...>>..."};
