/* XPM */
static char * frisk_xpm[] = {
"64 64 15 1",
" 	c #3C110D",
".	c #FFFFFF",
"+	c #E6E6E6",
"@	c #FFCB0D",
"#	c #66A3E0",
"$	c #E70BF8",
"%	c #130003",
"&	c #7D717E",
"*	c #FFEB0D",
"=	c #6DBAFB",
"-	c #996D0C",
";	c #58B5DE",
">	c #49C7DB",
",	c #634825",
"'	c #69ADEE",
"++.++..+..+..+..++...+..++.++.++..+..+..++.+++..++.++.++..+..+..",
"....................++++++++++++++++++++++......................",
"..+..+..++.++..+..++++#&&&&&&&&&&&&&&&&&+++...++..+..+..+..++.++",
"++.++..+..+..+..++.++&&,,,,,,,,,,,,,,,,&#+++++..+..++.++..+..+..",
"+...+..+..+..+..+.++&&,                ,&#++++..+..+...+..+..+..",
"..+..+..++.++..+.++&&,                   ,&++.++..+..+..+..++.++",
"++.++..+..+..+..++&,,                     ,&++..+..++.++..+..+..",
"++.++..+..+..+.++&,                        ,&++.+..++.++..+..+..",
"..+..+..++.++.++&&                         ,,&++..+..+..+..++.++",
"++.++..+..+..++&&,                           &+++..++.++..+..+..",
"++.++..+..+..++&,               ,,           ,&+++.++.++..+..+..",
"..+..+..++.+++#&,   ,,-,,      ,--,           ,,&++..+..+..++.++",
"..+..+..++.++#&,    -@@@,      -@--,           ,&++..+..+..++.++",
"..+..+..++..+&,    --@@@--   ,--@@-,  --,      ,&++..+..+..++.++",
"++.++..+..+.+&,   ,@@@@@@-, ,-@@@@-, ,-@--     ,&+.++.++..+..+..",
"..+..+..++..+&,   ,@@@@@@@-,-@@@@@@-,-@@@--,   ,&++..+..+..++.++",
"..+..+..++.++&,   ,@@@@@@@--@@@@@@@@--@@@@-, ,,,&&++.+..+..++.++",
"++.++..+..+++&,   ,@@@@@@@@@@@@@@@@@@@@@@@@-,--,,&&++.++..+..+..",
"..+..+..++++&&,   ,@@@@@@@@@@@@@@@@@@@@@@@@--@-, ,&+.+..+..++.++",
"..+..+..+++&     %,@@@@@@@@@@@@@@@@@@@@@@@@-@@@-,,&+.+..+..++.++",
"++.++..+..+&      ,@@----@@@@@@@@@----@@@@@@@@--,,&++.++..+..+..",
"..+..+..+++&    ,-@@@@@@@@@@@@@@@@@@@@@@@@@@@@-, ,&+.+..+..++.++",
"..+..+..+++&    ,-@@@@@@@@@@@@@@@@@@@@@@@@@@@-,, ,&+.+..+..++.++",
"++.++..+..+&    --@@@@@@@@@@@@@@@@@@@@@@@@@@@,   ,&++.++..+..+..",
"..+..+..+++&   ,-@@@@@@@@@@@----@@@@@@@@@@@@-    ,&+.+..+..++.++",
"..+..+..+++&    --@@@@@@@@@@----@@@@@@@@@@@-     ,&+.+..+..++.++",
"++.++..+..+&     ,-@@@@@@@@@@@@@@@@@@@-,,,,,     ,&++.++..+..+..",
"..+..+..+++&     %,-@@@@@@@@@@@@@@@@@@- %        ,&+.+..+..+...+",
"..+..+..+++&, ,,,  ,----@@@@@@@@@@@@@-,      ,, ,&&+.+..+..++.++",
"++.++..+..+&&,&&&&  ,,,-@@@@@@@@@@@@-,     ,,&&,&&&++.++..+..+..",
"..........++&&&++& %%% ,-----@@@@@@-, %    ,&+&&&&++............",
"..+..+..++.++&++++&&&&&&&&&&,-@@@@-,,&&&&&&&+++&&++..+..+..++.++",
"++.++..+..+.+++.+++++++++++&&-@@@@-&&++++++&#+++++.++.++..+..+..",
".........................++&&--@@--&&+++++++++..................",
"..+..+..++.++..+......++.+&&&,----,&&&&&+++++..+..+..+..+..++.++",
"++.++..+..+..+..+..+++++++&&&, ,, ,&&&,&+++++...+..++.++..+..+..",
"++..+..+..+..+..++++++####&&&      &&&&,&+++++..+..++..+..+..+..",
"..+..+..++.++...+++#&,,,&&##&&,,,,&&##&,,,,&#+++..+..+..+..++.++",
"..+..+..++.++..+++&##&&&################&&&##&++..+..+..+..++.++",
"..+..+..+...+.+++#&##&&&################&&&&#&#++.+..+..+..+...+",
"++.++..+..+..+++&&#&&$$$$$$$$$$$$$$$$$$$&&,&&#&&++.++.++..+..+..",
"..+..+..++.++.+&&&#&&&$$##$$$###$$###$$#&&&&&#&&&++..+..+..++.++",
"..+..+..++.+.++&&##&&&#####$##;##########&&&&##&&++..+..+..++.++",
"++.++..+..+..++&&&#&&######################&&#&&#+.++.++..+..+..",
"..+..+..++.++.+#&&&,&$$$$$$$$$$$$$$$$$$$$$$&,&&&&++..+..+..++.++",
"..+..+..++.++.+#&---&$$$$$$$$$$$$$$$$$$$$$$&---&&++..+..+..++.++",
"++.++..+..+..++&&-@-&######################&-@-&#+.++.++..+..+..",
"..+..+..++.++.+#&---&######################&---&&++..+..+..++.++",
"..+..+..++.++.+#&,,,&######################&,,,&&++..+..+..++.++",
"++.++..+..+..+++&&&&&######################&&&&&++.++.++..+..+..",
"..+..+..++.++.+++++&&#######&&&&&##########&&++++.+..+..+..++.++",
"..+..+..++.++..+..+#&######&&,&&,&#########&++.+..+..+..+..++.++",
"++.++..+..+..+..+.++&######&&&++&&#########&&+..+..++.++..+..+..",
"..+..+..++.++..+..+#&&&&&&&&&&++&&&&&&&&&&&&#+.+..+..+..+..++.++",
"..+..+..++.++..+..+#&&&&&&&&&&++&,&&&&&&&&&&++.+..+..+..+..++.++",
"++.++..+..+..+..+.++&&&&, ,,,&++& ,,,, ,&&&&#+..+..++.++..+..+..",
"..+..+..++.++..+..++++++&   ,&++&      &++++++.+..+..+..+..++.++",
"..+..+..++.++..+..++++++&   ,&++&%     &++++..++..+..+..+..++.++",
"++.++..+..+..+..++..+#&&,,,,,&++& ,,,,,,&&&+++..+..++.++..+..+..",
"..+..+..+...+..+....+++#####+++++########+++..++..+..+..+..+...+",
"..+..+..++.++..+.....+++++++++..+++++++++++....+..+..+..+..++.++",
"++.++..+..+..+..+....++.++.++..+..+..+..++......+..++.++..+..+..",
"................................................................",
"................................................................"};
