/* XPM */
static char * wall1_xpm[] = {
"64 64 522 2",
"  	c #B44FA4",
". 	c #B34FA3",
"+ 	c #AF4D9F",
"@ 	c #AE4C9F",
"# 	c #AB4B9C",
"$ 	c #532852",
"% 	c #19192C",
"& 	c #1E1A2E",
"* 	c #1B192D",
"= 	c #4C264D",
"- 	c #AA4A9B",
"; 	c #AF4C9F",
"> 	c #B14DA1",
", 	c #A94A9B",
"' 	c #5A2956",
") 	c #4B234A",
"! 	c #4D2850",
"~ 	c #695B93",
"{ 	c #6E639D",
"] 	c #6D629C",
"^ 	c #6A5D95",
"/ 	c #4E2A52",
"( 	c #4B244A",
"_ 	c #572853",
": 	c #A74999",
"< 	c #B24EA2",
"[ 	c #B34EA3",
"} 	c #A54896",
"| 	c #582653",
"1 	c #54244E",
"2 	c #572F5A",
"3 	c #6A5E96",
"4 	c #6B619A",
"5 	c #6A6099",
"6 	c #53497C",
"7 	c #3A3458",
"8 	c #342F4E",
"9 	c #352F4E",
"0 	c #3A3357",
"a 	c #51487A",
"b 	c #6A5F98",
"c 	c #6A5E97",
"d 	c #57315D",
"e 	c #562551",
"f 	c #A24794",
"g 	c #B54FA5",
"h 	c #9E4490",
"i 	c #5B2553",
"j 	c #5C2553",
"k 	c #5F3766",
"l 	c #685E95",
"m 	c #685F96",
"n 	c #675E96",
"o 	c #605493",
"p 	c #52487D",
"q 	c #3F385D",
"r 	c #221D38",
"s 	c #020109",
"t 	c #000000",
"u 	c #010006",
"v 	c #201B36",
"w 	c #3B3457",
"x 	c #3E375C",
"y 	c #51477A",
"z 	c #655C93",
"A 	c #685E96",
"B 	c #5F3A69",
"C 	c #5B2552",
"D 	c #9B438D",
"E 	c #B550A5",
"F 	c #9D448F",
"G 	c #562857",
"H 	c #433D6A",
"I 	c #655C92",
"J 	c #62598F",
"K 	c #443D64",
"L 	c #413A60",
"M 	c #2E274E",
"N 	c #1E1836",
"O 	c #000002",
"P 	c #1F1A35",
"Q 	c #40395E",
"R 	c #443D63",
"S 	c #52497B",
"T 	c #61588E",
"U 	c #45406D",
"V 	c #532755",
"W 	c #9A428C",
"X 	c #B650A5",
"Y 	c #913D83",
"Z 	c #363557",
"` 	c #61578D",
" .	c #4A426C",
"..	c #443C64",
"+.	c #1E1935",
"@.	c #1C1733",
"#.	c #433B62",
"$.	c #4A426B",
"%.	c #61568C",
"&.	c #39385D",
"*.	c #8C3B7E",
"=.	c #B650A6",
"-.	c #454067",
";.	c #675D94",
">.	c #655B90",
",.	c #49446D",
"'.	c #8C3A7E",
").	c #453F66",
"!.	c #675C93",
"~.	c #645A90",
"{.	c #48436D",
"].	c #443F66",
"^.	c #7065A0",
"/.	c #554C7B",
"(.	c #4B436C",
"_.	c #49416A",
":.	c #6F649F",
"<.	c #48436C",
"[.	c #923E84",
"}.	c #363254",
"|.	c #655A93",
"1.	c #6C609C",
"2.	c #7267A3",
"3.	c #514975",
"4.	c #4F4773",
"5.	c #0B0915",
"6.	c #05040C",
"7.	c #504874",
"8.	c #7166A2",
"9.	c #6D619D",
"0.	c #383559",
"a.	c #8D3B7F",
"b.	c #2D2A4A",
"c.	c #52487E",
"d.	c #50457D",
"e.	c #675C96",
"f.	c #685D98",
"g.	c #6B609B",
"h.	c #7469A6",
"i.	c #4F4772",
"j.	c #473F67",
"k.	c #0D0721",
"l.	c #050019",
"m.	c #463E66",
"n.	c #4E4570",
"o.	c #7468A5",
"p.	c #6C619C",
"q.	c #685D97",
"r.	c #51467E",
"s.	c #2F2D4E",
"t.	c #443F65",
"u.	c #7367A7",
"v.	c #5F5391",
"w.	c #544A7E",
"x.	c #51477C",
"y.	c #4C4278",
"z.	c #695E98",
"A.	c #776BA8",
"B.	c #746F8B",
"C.	c #736F82",
"D.	c #746F89",
"E.	c #776CA8",
"F.	c #695E99",
"G.	c #4D437A",
"H.	c #51477B",
"I.	c #5E5290",
"J.	c #48436B",
"K.	c #3A375B",
"L.	c #786CAB",
"M.	c #7468A7",
"N.	c #5F5393",
"O.	c #52487C",
"P.	c #50467A",
"Q.	c #493F75",
"R.	c #6D639B",
"S.	c #AEA7CD",
"T.	c #B8B2D6",
"U.	c #B8B1D6",
"V.	c #B0A9CF",
"W.	c #70669D",
"X.	c #4A4076",
"Y.	c #51487C",
"Z.	c #5E5291",
"`.	c #7266A4",
" +	c #3D3B60",
".+	c #99428B",
"++	c #48244E",
"@+	c #4B4373",
"#+	c #6C629B",
"$+	c #776BAA",
"%+	c #7569A8",
"&+	c #605494",
"*+	c #544A7F",
"=+	c #857BAF",
"-+	c #8E84B8",
";+	c #8D84B8",
">+	c #877DB1",
",+	c #554C80",
"'+	c #6F65A0",
")+	c #6C629C",
"!+	c #4E4676",
"~+	c #45244E",
"{+	c #954088",
"]+	c #98428B",
"^+	c #481F45",
"/+	c #4B2249",
"(+	c #543863",
"_+	c #6F639E",
":+	c #7165A1",
"<+	c #7B70AC",
"[+	c #BAB4D8",
"}+	c #C6C0E0",
"|+	c #C5BFE0",
"1+	c #BDB6D9",
"2+	c #7D72AD",
"3+	c #7166A1",
"4+	c #563B67",
"5+	c #4B2248",
"6+	c #471E44",
"7+	c #A04692",
"8+	c #4A264D",
"9+	c #412345",
"0+	c #332B49",
"a+	c #7468A6",
"b+	c #796EA9",
"c+	c #C8C2E2",
"d+	c #BFB8DB",
"e+	c #7B70AA",
"f+	c #7065A1",
"g+	c #362E4E",
"h+	c #3F2244",
"i+	c #48264B",
"j+	c #9D4590",
"k+	c #AF4DA0",
"l+	c #B24EA3",
"m+	c #AC4B9D",
"n+	c #A14692",
"o+	c #331937",
"p+	c #433A6A",
"q+	c #473D6F",
"r+	c #514876",
"s+	c #B4AECE",
"t+	c #C3BDDD",
"u+	c #C3BDDE",
"v+	c #C4BEDF",
"w+	c #C4BDDE",
"x+	c #B7B1D1",
"y+	c #554D79",
"z+	c #463D6F",
"A+	c #443B6B",
"B+	c #2E1935",
"C+	c #A94A9A",
"D+	c #351838",
"E+	c #3E3664",
"F+	c #3F3667",
"G+	c #403766",
"H+	c #5D567C",
"I+	c #625C81",
"J+	c #7F75A9",
"K+	c #877DB4",
"L+	c #8076AB",
"M+	c #635C82",
"N+	c #5E577D",
"O+	c #413867",
"P+	c #3F3666",
"Q+	c #2F1835",
"R+	c #A64897",
"S+	c #3D2546",
"T+	c #574B89",
"U+	c #42386B",
"V+	c #3E3566",
"W+	c #796DAC",
"X+	c #7A6EAC",
"Y+	c #413769",
"Z+	c #41376A",
"`+	c #554A88",
" @	c #6A5F9A",
".@	c #3A2848",
"+@	c #A9499A",
"@@	c #3F2849",
"#@	c #7367A4",
"$@	c #7064A3",
"%@	c #4A4174",
"&@	c #AAA3CA",
"*@	c #9F95CD",
"=@	c #8074B5",
"-@	c #877ABC",
";@	c #AAA1D1",
">@	c #BAB3D7",
",@	c #B9B3D7",
"'@	c #ACA3D2",
")@	c #887CBE",
"!@	c #7F73B4",
"~@	c #9D93CC",
"{@	c #ACA5CC",
"]@	c #7166A0",
"^@	c #4A4073",
"/@	c #6F63A2",
"(@	c #3D2B4C",
"_@	c #3F2749",
":@	c #766AA8",
"<@	c #4D4376",
"[@	c #7165A2",
"}@	c #7A6EAD",
"|@	c #B9B2D6",
"1@	c #C1BAE0",
"2@	c #9289BD",
"3@	c #A59CCB",
"4@	c #C4BEE1",
"5@	c #C9C3E3",
"6@	c #C5BEE1",
"7@	c #A89FCD",
"8@	c #9086BB",
"9@	c #C0B9DF",
"0@	c #BBB4D8",
"a@	c #7C70AE",
"b@	c #7267A4",
"c@	c #4C4375",
"d@	c #7569A7",
"e@	c #3C2A4B",
"f@	c #CAC4E3",
"g@	c #9990BF",
"h@	c #AEA7CE",
"i@	c #C9C4E3",
"j@	c #B1AAD1",
"k@	c #958CBD",
"l@	c #7B6FAD",
"m@	c #7266A3",
"n@	c #4C4275",
"o@	c #9890BF",
"p@	c #AEA6CE",
"q@	c #C9C3E2",
"r@	c #A44795",
"s@	c #3D2748",
"t@	c #3B2A4B",
"u@	c #B14EA1",
"v@	c #4C1E47",
"w@	c #2B233D",
"x@	c #2F2743",
"y@	c #481C42",
"z@	c #A24693",
"A@	c #55224E",
"B@	c #4F2550",
"C@	c #342B55",
"D@	c #29243F",
"E@	c #2E2845",
"F@	c #332A53",
"G@	c #4E2551",
"H@	c #53214C",
"I@	c #9F4590",
"J@	c #542855",
"K@	c #3A3261",
"L@	c #4B417D",
"M@	c #4C417C",
"N@	c #2C2644",
"O@	c #2F2A48",
"P@	c #4B3F7A",
"Q@	c #4C427E",
"R@	c #3A3362",
"S@	c #532855",
"T@	c #5B2452",
"U@	c #433D69",
"V@	c #665D94",
"W@	c #685C98",
"X@	c #584B8E",
"Y@	c #514584",
"Z@	c #2C2745",
"`@	c #302A49",
" #	c #4F4382",
".#	c #675B98",
"+#	c #675D95",
"@#	c #453F6C",
"##	c #343356",
"$#	c #6E629E",
"%#	c #6E62A2",
"&#	c #685D9A",
"*#	c #433A67",
"=#	c #766AA9",
"-#	c #756AA8",
";#	c #443C68",
">#	c #675B97",
",#	c #6F63A0",
"'#	c #38375B",
")#	c #534783",
"!#	c #594F85",
"~#	c #594F84",
"{#	c #463D6E",
"]#	c #7A6FAD",
"^#	c #B2ABD1",
"/#	c #584E84",
"(#	c #524782",
"_#	c #7367A5",
":#	c #796DAD",
"<#	c #47436B",
"[#	c #923E83",
"}#	c #38335B",
"|#	c #6E61A1",
"1#	c #6A5E9E",
"2#	c #625790",
"3#	c #60558D",
"4#	c #50457F",
"5#	c #5B5088",
"6#	c #60568C",
"7#	c #B6AFD1",
"8#	c #CBC5E4",
"9#	c #9991C0",
"0#	c #9C92C8",
"a#	c #9F95CA",
"b#	c #968DBD",
"c#	c #CAC4E4",
"d#	c #B9B3D4",
"e#	c #62588D",
"f#	c #5B5188",
"g#	c #4F447F",
"h#	c #5F558D",
"i#	c #62578F",
"j#	c #6A5E9D",
"k#	c #6F62A3",
"l#	c #3B3760",
"m#	c #232044",
"n#	c #514680",
"o#	c #61568E",
"p#	c #675C95",
"q#	c #6B5E9E",
"r#	c #5C5289",
"s#	c #9890BC",
"t#	c #A8A0CA",
"u#	c #897FB5",
"v#	c #7E71B5",
"w#	c #9A91C5",
"x#	c #A79FCA",
"y#	c #9C92C5",
"z#	c #7F72B6",
"A#	c #877CB4",
"B#	c #9B93BE",
"C#	c #5E538B",
"D#	c #5F548D",
"E#	c #796CAC",
"F#	c #534881",
"G#	c #232248",
"H#	c #8D3C7F",
"I#	c #302D4E",
"J#	c #5C5288",
"K#	c #564B82",
"L#	c #4E447C",
"M#	c #645992",
"N#	c #645A92",
"O#	c #786CAC",
"P#	c #988FBF",
"Q#	c #9E96C4",
"R#	c #9D95C3",
"S#	c #9E96C3",
"T#	c #9F97C3",
"U#	c #9990C0",
"V#	c #4F457D",
"W#	c #554B81",
"X#	c #323052",
"Y#	c #353456",
"Z#	c #6F639F",
"`#	c #7569A9",
" $	c #635796",
".$	c #574D83",
"+$	c #554B80",
"@$	c #4B4178",
"#$	c #655A94",
"$$	c #685D96",
"%$	c #6B6099",
"&$	c #958DBC",
"*$	c #C1BBDD",
"=$	c #C3BCDE",
"-$	c #988FBE",
";$	c #6C619A",
">$	c #665B94",
",$	c #4C4279",
"'$	c #574D82",
")$	c #625695",
"!$	c #7468A8",
"~$	c #7064A1",
"{$	c #645B91",
"]$	c #695F98",
"^$	c #766AAA",
"/$	c #635797",
"($	c #53497D",
"_$	c #504779",
":$	c #A8A1C7",
"<$	c #B5AED4",
"[$	c #B5AED3",
"}$	c #AAA4C9",
"|$	c #534A7B",
"1$	c #625696",
"2$	c #695F97",
"3$	c #675B9A",
"4$	c #8980B4",
"5$	c #9188BA",
"6$	c #9187BA",
"7$	c #8B81B5",
"8$	c #685F97",
"9$	c #572F5B",
"0$	c #6B5E97",
"a$	c #71689F",
"b$	c #BBB5D7",
"c$	c #C8C1E2",
"d$	c #C7C1E1",
"e$	c #C7C1E2",
"f$	c #BDB7D9",
"g$	c #746AA0",
"h$	c #6B5F98",
"i$	c #57325E",
"j$	c #543556",
"k$	c #AEA7C4",
"l$	c #BCB6D4",
"m$	c #BBB5D4",
"n$	c #BBB6D4",
"o$	c #B0AAC7",
"p$	c #573B5A",
"q$	c #AB4C9C",
"r$	c #5C3B5B",
"s$	c #36363F",
"t$	c #383640",
"u$	c #373640",
"v$	c #573A57",
"w$	c #AA4B9B",
"                                        . + @ # $ % & & & & & & & & & & & & & * = - @ ; .                                       ",
"                                  . > > , ' ) ! ~ { ] ] ] ] ] ] ] ] ] ] ] ] ] { ^ / ( _ : > > .                                 ",
"                            . < [ } | 1 2 3 4 5 6 7 8 9 9 9 9 9 9 9 9 9 9 9 9 0 a b 4 c d 1 e f [ < .                           ",
"                          g h i j k l m n o p q r s t t t t t t t t t t t t t u v w x y z m A B j C D g                         ",
"                        E F G H I J 6 K L M N O t t t t t t t t t t t t t t t t t t t P Q R S T I U V W E                       ",
"                        X Y Z `  ...+.t t t t t t t t t t t t t t t t t t t t t t t t t t t @.#.$.%.&.*.=.                      ",
"                        X Y -.;.t t t t t t t t t t t t t t t t t t t t t t t t t t t t t t t t t >.,.'.=.                      ",
"                        X Y ).!.t t t t t t t t t t t t t t t t t t t t t t t t t t t t t t t t t ~.{.'.=.                      ",
"                        X Y ].^./.(.t t t t t t t t t t t t t t t t t t t t t t t t t t t t t _./.:.<.'.=.                      ",
"                        X [.}.|.1.2.3.4.$.5.t t t t t t t t t t t t t t t t t t t t t 6._.4.7.8.9.|.0.a.=.                      ",
"                        X [.b.c.d.e.f.g.h.i._.j.k.t t t t t t t t t t t t t t t l.m._.n.o.p.f.q.r.p s.a.=.                      ",
"                        X Y t.u.v.w.x.y.z.g.p.A.B.C.C.C.C.C.C.C.C.C.C.C.C.C.C.C.D.E.p.g.F.G.H.w.I.u.J.'.=.                      ",
"                        X Y K.8.L.L.M.N.O.P.Q.R.S.T.U.U.U.U.U.U.U.U.U.U.U.U.U.T.V.W.X.P.Y.Z.u.L.L.`. +*.=.                      ",
"                        E .+++@+#+:.L.L.$+%+&+*+=+-+;+;+;+;+;+;+;+;+;+;+;+;+;+-+>+,+N.%+$+L.L.'+)+!+~+{+E                       ",
"                            ]+^+/+(+_+^.:+$+$+<+[+}+|+|+|+|+|+|+|+|+|+|+|+|+|+}+1+2+$+$+3+^.:.4+5+6+{+                          ",
"                            < @ + 7+8+9+0+:.a+b+1+c+c+c+c+c+c+c+c+c+c+c+c+c+c+c+d+e+a+f+g+h+i+j+k+@ <                           ",
"                                  l+m+n+o+p+q+r+s+t+u+v+v+v+v+v+v+v+v+v+v+v+w+t+x+y+z+A+B+h m+<                                 ",
"                                      C+D+E+F+G+H+I+J+K+K+K+K+K+K+K+K+K+K+K+L+M+N+O+F+P+Q+R+g                                   ",
"                                      C+S+F.T+U+V+F+_+W+L.L.W+X+X+X+W+L.L.W+^.Y+V+Z+`+ @.@R+                                    ",
"                                      +@@@#@$@%@e.:.&@*@=@-@;@>@,@>@'@)@!@~@{@]@q.^@/@a+(@R+                                    ",
"                                      +@_@#@:@<@[@}@|@1@2@3@4@5@5@5@6@7@8@9@0@a@b@c@d@h.e@R+                                    ",
"                                      +@_@#@:@<@f+X+U.f@g@h@i@c+c+c+5@j@k@5@0@l@m@n@d@h.e@R+                                    ",
"                                      +@_@#@:@<@f+X+U.5@o@p@5@c+c+c+5@j@k@q@0@l@m@n@d@h.e@R+                                    ",
"                                      +@_@#@:@<@f+X+U.5@o@p@5@c+c+c+5@j@k@q@0@l@m@n@d@h.e@R+                                    ",
"                                      +@_@#@:@<@f+X+U.5@o@p@5@c+c+c+5@j@k@q@0@l@m@n@d@h.e@R+                                    ",
"                                      +@_@#@:@<@f+X+U.5@o@p@5@c+c+c+5@j@k@q@0@l@m@n@d@h.e@R+                                    ",
"                                      +@_@#@:@<@f+X+U.5@o@p@5@c+c+c+5@j@k@q@0@l@m@n@d@h.e@R+                                    ",
"                                      +@_@#@:@<@f+X+U.5@o@p@5@c+c+c+5@j@k@q@0@l@m@n@d@h.e@R+                                    ",
"                                      +@_@#@:@<@f+X+U.5@o@p@5@c+c+c+5@j@k@q@0@l@m@n@d@h.e@R+                                    ",
"                                      +@_@#@:@<@f+X+U.5@o@p@5@c+c+c+5@j@k@q@0@l@m@n@d@h.e@R+                                    ",
"                                      +@_@#@:@<@f+X+U.5@o@p@5@c+c+c+5@j@k@q@0@l@m@n@d@h.e@R+                                    ",
"                                      +@_@#@:@<@f+X+U.5@o@p@5@c+c+c+5@j@k@q@0@l@m@n@d@h.e@R+                                    ",
"                                      +@_@#@:@<@f+X+U.5@o@p@5@c+c+c+5@j@k@q@0@l@m@n@d@h.e@R+                                    ",
"                                      +@_@#@:@<@f+X+U.5@o@p@5@c+c+c+5@j@k@q@0@l@m@n@d@h.e@R+                                    ",
"                                      +@_@#@:@<@f+X+U.5@o@p@5@c+c+c+5@j@k@q@0@l@m@n@d@h.e@R+                                    ",
"                                      +@_@#@:@<@f+X+U.5@o@p@5@c+c+c+5@j@k@q@0@l@m@n@d@h.e@R+                                    ",
"                                      +@_@#@:@<@f+X+U.5@o@p@5@c+c+c+5@j@k@q@0@l@m@n@d@h.e@R+                                    ",
"                                      +@_@#@:@<@f+X+U.5@o@p@5@c+c+c+5@j@k@q@0@l@m@n@d@h.e@R+                                    ",
"                                      +@_@#@:@<@f+X+U.5@o@p@5@c+c+c+5@j@k@q@0@l@m@n@d@h.e@R+                                    ",
"                                      +@_@#@:@<@f+X+U.5@o@p@5@c+c+c+5@j@k@q@0@l@m@n@d@h.e@R+                                    ",
"                                      +@_@#@:@<@f+X+U.5@o@p@5@c+c+c+5@j@k@q@0@l@m@n@d@h.e@R+                                    ",
"                                      +@_@#@:@<@f+X+U.5@o@p@5@c+c+c+5@j@k@q@0@l@m@n@d@h.e@R+                                    ",
"                                      +@_@#@:@<@f+X+U.5@o@p@5@c+c+c+5@j@k@q@0@l@m@n@d@h.e@R+                                    ",
"                                      +@_@#@:@<@f+X+U.5@o@p@5@c+c+c+5@j@k@q@0@l@m@n@d@h.e@R+                                    ",
"                                      +@_@#@:@<@f+X+U.5@o@p@5@c+c+c+5@j@k@q@0@l@m@n@d@h.e@R+                                    ",
"                                      +@_@#@:@<@f+X+U.5@o@p@5@c+c+c+5@j@k@q@0@l@m@n@d@h.e@R+                                    ",
"                                      +@_@#@:@<@f+X+U.5@o@p@5@c+c+c+5@j@k@q@0@l@m@n@d@h.e@R+                                    ",
"                                      +@_@#@:@<@f+X+U.5@o@p@5@c+c+c+5@j@k@q@0@l@m@n@d@h.e@R+                                    ",
"                                    . r@s@#@:@<@f+X+U.5@o@p@5@c+c+c+5@j@k@q@0@l@m@n@d@h.t@n+.                                   ",
"                                . u@} v@w@#@:@<@f+X+U.5@o@p@5@c+c+c+5@j@k@q@0@l@m@n@d@h.x@y@f u@.                               ",
"                            . [ z@A@B@C@D@#@:@<@f+X+U.5@o@p@5@c+c+c+5@j@k@q@0@l@m@n@d@h.E@F@G@H@I@. .                           ",
"                          g h j J@K@L@M@N@#@:@<@f+X+U.5@o@p@5@c+c+c+5@j@k@q@0@l@m@n@d@h.O@P@Q@R@S@T@D g                         ",
"                        E F G U@V@W@X@Y@Z@#@:@<@f+X+U.5@o@p@5@c+c+c+5@j@k@q@0@l@m@n@d@h.`@ #X@.#+#@#V W E                       ",
"                        X Y ##$#W+$+%#&#*#h.=#<@f+X+U.5@o@p@5@c+c+c+5@j@k@q@0@l@m@c@d@-#;#>#%#=#W+,#'#*.=.                      ",
"                        X Y t.W+L.L.W+a+)#!#~#{#[@]#U.5@o@h@f@c+c+c+5@^#k@q@0@a@b@{#/#!#(#_#W+L.L.:#<#'.=.                      ",
"                        X [#}#|#W+W+L.=#1#2#3#4#5#6#7#8#9#0#9@f@5@f@1@a#b#c#d#e#f#g#h#i#j#=#L.W+W+k#l#a.=.                      ",
"                        X [.m#n#o#p#L.W+:#W+L.q#h#r#s#t#u#v#w#t#x#t#y#z#A#t#B#C#D#j#L.W+:#W+E#q.o#F#G#H#=.                      ",
"                        X [.I#J#K#L#M#N#e.$+W+W+O#P#Q#R#S#T#S#R#R#R#S#T#Q#R#S#U#W+W+W+L.q.N#M#V#W#J#X#a.=.                      ",
"                        X Y Y#Z#`# $.$+$@$#$$$%$&$*$c#f@f@f@f@f@f@f@f@f@f@f@c#=$-$;$$$>$,$*+'$)$!$~$'#*.=.                      ",
"                        E F G U@{$]$O#^$/$+$($_$:$<$[$[$[$[$[$[$[$[$[$[$[$[$[$<$}$|$($+$1$=#W+5 {$@#V W E                       ",
"                          g h i j k l 2$5 $+$+3$4$5$6$6$6$6$6$6$6$6$6$6$6$6$6$6$7$3$$+$+4 8$A B j C D g                         ",
"                            . < [ } | 1 9$0$)+a$b$c$d$d$d$d$d$d$d$d$d$d$d$d$d$e$f$g$)+h$i$1 e f [ < .                           ",
"                                  . > > , ' ) j$k$l$m$m$m$m$m$m$m$m$m$m$m$m$m$n$o$p$( _ : > > .                                 ",
"                                        . + @ q$r$s$t$t$t$t$t$t$t$t$t$t$t$t$t$u$v$w$@ ; .                                       "};
