/* XPM */
static char *xpm_[] = {
/* columns rows colors chars-per-pixel */
"64 64 233 2 ",
"   c #030101",
".  c #0C0000",
"X  c #0A0903",
"o  c #010009",
"O  c #0E0508",
"+  c #140000",
"@  c #1B0000",
"#  c #170803",
"$  c #000011",
"%  c #230000",
"&  c #2C0100",
"*  c #2B0A00",
"=  c #320000",
"-  c #3B0300",
";  c #3E0C00",
":  c #350900",
">  c #3B1400",
",  c #3D1D02",
"<  c #3C1E0B",
"1  c #341F04",
"2  c #3C2102",
"3  c #3A230A",
"4  c #440500",
"5  c #4B0400",
"6  c #440C00",
"7  c #490A00",
"8  c #4C1400",
"9  c #431D01",
"0  c #401D0A",
"q  c #461300",
"w  c #541B00",
"e  c #5C1E00",
"r  c #541300",
"t  c #621D00",
"y  c #6A1C00",
"u  c #671700",
"i  c #751C00",
"p  c #422705",
"a  c #562300",
"s  c #5B2200",
"d  c #5B2A00",
"f  c #552C07",
"g  c #573915",
"h  c #4B350B",
"j  c #642400",
"k  c #6D2600",
"l  c #642900",
"z  c #6C2B00",
"x  c #722200",
"c  c #7A2500",
"v  c #722B00",
"b  c #7D2D00",
"n  c #683503",
"m  c #773300",
"M  c #733C00",
"N  c #7B3C00",
"B  c #683B14",
"V  c #5F4417",
"C  c #6B4309",
"Z  c #754100",
"A  c #7C4409",
"S  c #794604",
"D  c #7C4B1B",
"F  c #734314",
"G  c #644720",
"H  c #6F512B",
"J  c #78522C",
"K  c #72653B",
"L  c #842C00",
"P  c #893E00",
"I  c #843200",
"U  c #963900",
"Y  c #824404",
"T  c #834E01",
"R  c #8B4900",
"E  c #874806",
"W  c #914200",
"Q  c #9C4C00",
"!  c #895205",
"~  c #995706",
"^  c #8A4C12",
"/  c #874F1C",
"(  c #875219",
")  c #A74F00",
"_  c #B64D00",
"`  c #A25400",
"'  c #AD5500",
"]  c #A35A04",
"[  c #A15F09",
"{  c #B75A03",
"}  c #A95B13",
"|  c #986115",
" . c #AE620C",
".. c #A76004",
"X. c #BE730E",
"o. c #A7651A",
"O. c #B36B16",
"+. c #BA7519",
"@. c #B96B07",
"#. c #865725",
"$. c #955D2E",
"%. c #876128",
"&. c #9B6426",
"*. c #896639",
"=. c #9E7034",
"-. c #966232",
";. c #AA6A23",
":. c #A66827",
">. c #B16E25",
",. c #AA7123",
"<. c #AF7A2E",
"1. c #B67627",
"2. c #A67636",
"3. c #B57637",
"4. c #AA6E3A",
"5. c #C96F04",
"6. c #C66D05",
"7. c #CC750E",
"8. c #DB7600",
"9. c #D57806",
"0. c #C57A1C",
"q. c #C77316",
"w. c #D27413",
"e. c #D67E1A",
"r. c #D16A0E",
"t. c #E26400",
"y. c #E57500",
"u. c #E87A05",
"i. c #E07B1C",
"p. c #C77C28",
"a. c #D17D23",
"s. c #C37930",
"d. c #9E7948",
"f. c #916542",
"g. c #A57744",
"h. c #B37B4C",
"j. c #B88139",
"k. c #DC8417",
"l. c #CC811B",
"z. c #ED8B0B",
"x. c #E6870D",
"c. c #F58304",
"v. c #FE8501",
"b. c #F58B02",
"n. c #FB8B04",
"m. c #F48C0B",
"M. c #FB8C0D",
"N. c #F8850D",
"B. c #FD9104",
"V. c #F69209",
"C. c #FB910A",
"Z. c #E48213",
"A. c #ED8615",
"S. c #EC8C15",
"D. c #E58C19",
"F. c #ED8C1C",
"G. c #E88619",
"H. c #F48613",
"J. c #F38B14",
"K. c #FC8C13",
"L. c #F38B1C",
"P. c #FB8B1D",
"I. c #F3861B",
"U. c #EB921C",
"Y. c #E7901D",
"T. c #FB9114",
"R. c #F2921B",
"E. c #F69219",
"W. c #C98223",
"Q. c #D6842D",
"!. c #D98E2B",
"~. c #D98728",
"^. c #DD912C",
"/. c #CF8B39",
"(. c #CA8737",
"). c #DD8D33",
"_. c #D48C3D",
"`. c #DB8D3B",
"'. c #D58936",
"]. c #D69034",
"[. c #DB9436",
"{. c #D5933D",
"}. c #DB933D",
"|. c #CD943B",
" X c #E48D23",
".X c #EB8C25",
"XX c #E18E2C",
"oX c #E98724",
"OX c #F28623",
"+X c #F38D24",
"@X c #FA8C21",
"#X c #F38D2D",
"$X c #E39126",
"%X c #EC922B",
"&X c #E89127",
"*X c #F19223",
"=X c #F1922B",
"-X c #E28D33",
";X c #E08E3C",
":X c #F28F31",
">X c #E29335",
",X c #EC9332",
"<X c #E39539",
"1X c #E7983C",
"2X c #AE8558",
"3X c #BF9A5B",
"4X c #BD9961",
"5X c #CB8D4D",
"6X c #C58A44",
"7X c #D48C43",
"8X c #D88F47",
"9X c #CE954F",
"0X c #C69848",
"qX c #D69444",
"wX c #DA9444",
"eX c #D2934C",
"rX c #DB944B",
"tX c #CA8F52",
"yX c #DA8D58",
"uX c #C49354",
"iX c #CC9553",
"pX c #CD945A",
"aX c #C5965A",
"sX c #D39253",
"dX c #D1915B",
"fX c #D99355",
"gX c #E69546",
"hX c #D28F62",
"jX c #C39462",
"kX c #C89266",
"lX c #D29060",
"zX c #B44FA4",
"xX c black",
/* pixels */
"zXzXzXzXzXzXzXzXzXzXzXzXzXzXzXzXzXzXzXzXzXzXzXzXzXzXzXzXzXzXzXzXzXzXzXzXzXzXzXzXzXzXzXzXzXzXzXzXzXzXzXzXzXzXzXzXzXzXzXzXzXzXzXzX",
"zXzXzXzXzXzXzXzXzXzXzXzXzXzXzXzXzXzXzXzXzXzXzXzXzXzXzXzXzXzXzXzXzXzXzXzXzXzXzXzXzXzXzXzXzXzXzXzXzXzXzXzXzXzXzXzXzXzXzXzXzXzXzXzX",
"zXzXzXzXzXzXzXzXzXzXzXzXzXzXzXzXzXzXzXzXzXzXzXzXzXzXzXzXzXzXzXzXzXzXzXzXzXzXzXzXzXzXzXzXzXzXzXzXzXzXzXzXzXzXzXzXzXzXzXzXzXzXzXzX",
"zXzXzXzXzXzXzXzXzXzXzXzXzXzXzXzXzXzXzXzXzXzXzXzXzXzXzXzXzXzXzXzXzXzXzXzXzXzXzXzXzXzXzXzXzXzXzXzXzXzXzXzXzXzXzXzXzXzXzXzXzXzXzXzX",
"zXzXzXzXzXzXzXzXzXzXzXzXzXzXzXzXzXzXzXzXzXzXzXzXzXzXzXzXzXzXzXzXzXzXzXzXzXzXzXzXzXzXzXzXzXzXzXzXzXzXzXzXzXzXzXzXzXzXzXzXzXzXzXzX",
"zXzXzXzXzXzXzXzXzXzXzXzXzXzXzXzXzXzXzXzXzXzXzXzXzXzXzXzXzXzXzXzXzXzXzXzXzXzXzXzXzXzXzXzXzXzXzXzXzXzXzXzXzXzXzXzXzXzXzXzXzXzXzXzX",
"zXzXzXzXzXzXzXzXzXzXzXzXzXzXzXzXzXzXzXzXzXzXzXzXzXzXzXzXzXzXzXzXzXzXzXzXzXzXzXzXzXzXzXzXzXzXzXzXzXzXzXzXzXzXzXzXzXzXzXzXzXzXzXzX",
"zXzXzXzXzXzXzXzXzXzXzXzXzXzXzXzXzXzXzXzXzXzXzXzXzXzXzXzXzXzXzXzXzXzXzXzXzXzXzXzXzXzXzXzXzXzXzXzXzXzXzXzXzXzXzXzXzXzXzXzXzXzXzXzX",
"zXzXzXzXzXzXzXzXzXzXzXzXzXzXzXzXzXzXzXzXzXzXzXzXzXzXzXzXzXzXzXzXzXzXzXzXzXzXzXzXzXzXzXzXzXzXzXzXzXzXzXzXzXzXzXzXzXzXzXzXzXzXzXzX",
"zXzXzXzXzXzXzXzXzXzXzXzXzXzXzXzXzXzXzXzXzXzXzXzXzXzXzXzXzXzXzXzXzXzXzXzXzXzXzXzXzXzXzXzXzXzXzXzXzXzXzXzXzXzXzXzXzXzXzXzXzXzXzXzX",
"zXzXzXzXzXzXzXzXzXzXzXzXzXzXzXzXzXzXzXzXzXzXzXzXzXzXzXzXzXzXzXzXzXzXzXzXzXzXzXzXzXzXzXzXzXzXzXzXzXzXzXzXzXzXzXzXzXzXzXzXzXzXzXzX",
"zXzXzXzXzXzXzXzXzXzXzXzXzXzXzXzXzXzXzXzXzXzXzXzXzXzXzXzXzXzXzXzXzXzXzXzXzXzXzXzXzXzXzXzXzXzXzXzXzXzXzXzXzXzXzXzXzXzXzXzXzXzXzXzX",
"zXzXzXzXzXzXzXzXzXzXzXzXzXzXzXzXzXzXzXzXzXzXzXzXzXzXzXzXzXzXzXzXzXzXzXzXzXzXzXzXzXzXzXzXzXzXzXzXzXzXzXzXzXzXzXzXzXzXzXzXzXzXzXzX",
"zXzXzXzXzXzXzXzXzXzXzXzXzXzXzXzXzXzXzXzXzXzXzXzXzXzXzXzXzXzXzXzXzXzXzXzXzXzXzXzXzXzXzXzXzXzXzXzXzXzXzXzXzXzXzXzXzXzXzXzXzXzXzXzX",
"zXzXzXzXzXzXzXzXzXzXzXzXzXzXzXzXzXzXzXzXzXzXzXzXzXzXzXzXzXzXzXzXzXzXzXzXzXzXzXzXzXzXzXzXzXzXzXzXzXzXzXzXzXzXzXzXzXzXzXzXzXzXzXzX",
"zXzXzXzXzXzXzXzXzXzXzXzXzXzXzXzXzXzXzXzXzXzXzXzXzXzXzXzXzXzXzXzXzXzXzXzXzXzXzXzXzXzXzXzXzXzXzXzXzXzXzXzXzXzXzXzXzXzXzXzXzXzXzXzX",
"zXzXzXzXzXzXzXzXzXzXzXzXzXzXzXzXzXzXzXzXzXzXzXzXzXzXzXzXzXzXzXzXzXzXzXzXzXzXzXzXzXzXzXzXzXzXzXzXzXzXzXzXzXzXzXzXzXzXzXzXzXzXzXzX",
"zXzXzXzXzXzXzXzXzXzXzXzXzXzXzXzXzXzXzXzXzXzXzXzXzXzXzXzXzXzXzXzXzXzXzXzXzXzXzXzXzXzXzXzXzXzXzXzXzXzXzXzXzXzXzXzXzXzXzXzXzXzXzXzX",
"zXzXzXzXzXzXzXzXzXzXzXzXzXzXzXzXzXzXzXzXzXzXzXzXzXzXzXzXzXzXzXzXzXzXzXzXzXzXzXzXzXzXzXzXzXzXzXzXzXzXzXzXzXzXzXzXzXzXzXzXzXzXzXzX",
"zXzXzXzXzXzXzXzXzXzXzXzXzXzXzXzXzXzXzXzXzXzXzXzXzXzXzXzXzXzXzXzXzXzXzXzXzXzXzXzXzXzXzXzXzXzXzXzXzXzXzXzXzXzXzXzXzXzXzXzXzXzXzXzX",
"gX_.9XiX9X5XiX5XeXeXsX9X0X0XiXiXeXeXeXsXdXdXyXyXyXsXdXsXeXeXiXiXpXpXiX9XeXeXhXhXfXeX8XeXiXiXyXyXyXdXaXiXsXsXiXiXpXpXdXtXeX7X'.gX",
"i.L j s s e s s s s e e s a a s s s s e t t t t e e e e t s s a s e e e s t e e e e t t s s u y t e a a s s s s s e e j j y U i.",
"gXr @ + + + . . . . . + + + @ + . . . + @ + .     + + + . . . . + @ + . + . . . .   + .   . + @ @ + . .   . + + + + @ + @ % j >X",
"rX6 #       o $ o   o o .       . + + @ + + . . . + . + + + + @ @ @ @ .     + @ + + + +     + @ @ @ @ .   . @ + + . @ + + @ s {.",
";Xr         o o     o   . .   + &.[. X~.N & e W.!.}.F - ).&X X$X X X.X/.@ f W.=X!.!.$XQ.C @ ~ ;X%XG.,XQ.j.8 0.{.g.% n tXuXM s [.",
"1X7 X     .   . X   .       X + } A.B.b.~.Q 6.E.b.D.N 5 P.v.K.x.S.F.F.>X= Y H.n.V.V.B.R.,.& q.H.c.T.M.*X<Xi 8.L.>.= v {.!.m k !.",
"/.w + . H f.@ .   . : -.K .   + } @Xn.n.E.F.z.b.b.F.N 7 *XN. XQ ! ! ^ 4.% ^ #XK.S.x.c.P.o.& k.L.#XZ.A.F.!.L y.m.o.& x >X XL c ).",
"wX8 @ + @ d.f.% + @ M 5XG     + } @Xc.n.b.C.V.V.n.+XN 5 L.J.0.& @ + # @ & ^ .XG.P b u.@X:.& 7.F.a.u _ ,X;Xc y.J.1.& v >X%XL i ;X",
"{.w + # . + g.&.% d 3.F X     @  .I.T.u.v.v.T.8.M.OXY 5 Z.R./.% + .   . @ E F.D.= & e.OX>.& 9.U.>.= z eXfXk 9.F.O.- m ].[.b c gX",
"_.8 @     . 6 :.| j./ @       @ ] A.J._ t.N.i.i P.G.N 7 F.T.0.= % @ + + % Y R.G.= = r.OX:.& 9.D.o.& : n B 4 P -XQ.Q @.1X1.7 u '.",
"qX8 +     X @ 8 >X+.@     o O @ ..R.R._ _ :Xp.5 K.F.Y 7 Z.b.J.5.q.q.+.1.% T U.z.5.6.m.=X&.= 9.U.,.@ + .   + 6 3.XXL.U.l.M % l wX",
"{.q @       @ ( XXX.@         @  .x.D.' W ;.$.- L.J.N - +XK.N.S.F.&XY.].& S D.T.M.M.m.~.=.& 9.F.,.@ #       + & w.H.k.R @ + s qX",
"}.8 +     + r 1.q._.C + . O   @ ' K.L.` % . . = OXP.N 7 I.M.k.0.1.3.<.2.% T Y.V.b.M.z.X., % w.F.,.@ + .       @ ' L.Q.- + + s 8X",
"`.8 . O . > 4.:.= &.2.@ .     +  .H.F.~ .     : #XI.S ; OXP.l.= & % @ @ % A D.b.m.S.m.Q @ & q.*X,.% & g g # . @ ' =X(.&   + l `.",
"gXq     @ J %.@ @ f j.C + o o + O.+XU.!       & I.P.Z = :XI.(.= @ . . + + D *XM.{ k.J.*X^ & l.D.>.= k rXsXs # + [ -X(.% . + j ).",
"8X; # . % 2Xh . . + M uX.   o + [ .XU.~   o   = L.S.Z ; oX@Xa.& % @ + + + D G.H.- M u.L.;.= 9.U.0.y ` .X-Xl @ % ~ ).2X%   + x XX",
">Xw +   J 2XX   o + & 2.K X   # } J.x.~ +   . &  XR.N - P.M.Z.Q W R R :.@ / OX.X% % w.L.;.4 5.R.E.8.V.R.XXz + + [ >X(.% + + j ).",
"!.8 + # h g         @ G h     % o.%X&X~ +   + % }.!.C ; #XH.S.D.*X~.XXqX% D ,XQ.+ + p.-X&.& 0.$XS.E.A..XwXd . + ~ <X2X@ # + s ).",
"<X7 @     +         #     . . + $.5XeX( +   o @ uX9XV * 7X1X!.[.<X].{.iX% H 9XuX.   g.sXd.& | |.{.gX}.8Xh.>   . #.iX2X#   # l !.",
"wX8 + .     . . .           . + & % & @     X   % & + # = = - = = : = & % @ % @   X % % + + @ & = & = & & + . + @ % % .   + w >X",
"rXq + + . . + . . + . . . . . + + @ + . .     + @ @ + . @ @ @ @ + @ + + + + + + . + + + + + + @ @ + @ @ @ @ + + @ # .   # @ s `.",
"7Xn 9 , , p < < 2 2 0 < 3 2 2 2 2 2 3 3 , p 3 , 9 9 , 3 < < 3 2 2 , < < 9 p 2 2 2 9 p 9 2 , , 2 2 2 2 2 9 9 0 3 9 2 3 1 , 9 N 7X",
"zXzXzXzXaXaXzXzXzXzXzXzXzXzXzXzXzXzXzXzXzXzXzXzXzXzXzXzXzXzXzXzXzXzXzXzXzXzXzXzXzXzXzXzXzXzXzXzXzXzXzXzXzXzXzXzXzXzXzXzXzXzXzXzX",
"zXzXzXzXzXzXzXzXzXzXzXzXzXzXzXzXzXzXzXzXzXzXzXzXzXzXzXzXzXzXzXzXzXzXzXzXzXzXzXzXzXzXzXzXzXzXzXzXzXzXzXzXzXzXzXzXzXzXzXzXzXzXzXzX",
"zXzXzXzXzXzXzXzXzXzXzXzXzXzXzXzXzXzXzXzXzXzXzXzXzXzXzXzXzXzXzXzXzXzXzXzXzXzXzXzXzXzXzXzXzXzXzXzXzXzXzXzXzXzXzXzXzXzXzXzXzXzXzXzX",
"zXzXzXzXzXzXzXzXzXzXzXzXzXzXzXzXzXzXzXzXzXzXzXzXzXzXzXzXzXzXzXzXzXzXzXzXzXzXzXzXzXzXzXzXzXzXzXzXzXzXzXzXzXzXzXzXzXzXzXzXzXzXzXzX",
"zXzXzXzXzXzXzXzXzXzXzXzXzXzXzXzXzXzXzXzXzXzXzXzXzXzXzXzXzXzXzXzXzXzXzXzXzXzXzXzXzXzXzXzXzXzXzXzXzXzXzXzXzXzXzXzXzXzXzXzXzXzXzXzX",
"zXzXzXzXzXzXzXzXzXzXzXzXzXzXzXzXzXzXzXzXzXzXzXzXzXzXzXzXzXzXzXzXzXzXzXzXzXzXzXzXzXzXzXzXzXzXzXzXzXzXzXzXzXzXzXzXzXzXzXzXzXzXzXzX",
"zXzXzXzXzXzXzXzXzXzXzXzXzXzXzXzXzXzXzXzXzXzXzXzXzXzXzXzXzXzXzXzXzXzXzXzXzXzXzXzXzXzXzXzXzXzXzXzXzXzXzXzXzXzXzXzXzXzXzXzXzXzXzXzX",
"zXzXzXzXzXzXzXzXzXzXzXzXzXzXzXzXzXzXzXzXzXzXzXzXzXzXzXzXzXzXzXzXzXzXzXzXzXzXzXzXzXzXzXzXzXzXzXzXzXzXzXzXzXzXzXzXzXzXzXzXzXzXzXzX",
"zXzXzXzXzXzXzXzXzXzXzXzXzXzXzXzXzXzXzXzXzXzXzXzXzXzXzXzXzXzXzXzXzXzXzXzXzXzXzXzXzXzXzXzXzXzXzXzXzXzXzXzXzXzXzXzXzXzXzXzXzXzXzXzX",
"zXzXzXzXzXzXzXzXzXzXzXzXzXzXzXzXzXzXzXzXzXzXzXzXzXzXzXzXzXzXzXzXzXzXzXzXzXzXzXzXzXzXzXzXzXzXzXzXzXzXzXzXzXzXzXzXzXzXzXzXzXzXzXzX",
"zXzXzXzXzXzXzXzXzXzXzXzXzXzXzXzXzXzXzXzXzXzXzXzXzXzXzXzXzXzXzXzXzXzXzXzXzXzXzXzXzXzXzXzXzXzXzXzXzXzXzXzXzXzXzXzXzXzXzXzXzXzXzXzX",
"zXzXzXzXzXzXzXzXzXzXzXzXzXzXzXzXzXzXzXzXzXzXzXzXzXzXzXzXzXzXzXzXzXzXzXzXzXzXzXzXzXzXzXzXzXzXzXzXzXzXzXzXzXzXzXzXzXzXzXzXzXzXzXzX",
"zXzXzXzXzXzXzXzXzXzXzXzXzXzXzXzXzXzXzXzXzXzXzXzXzXzXzXzXzXzXzXzXzXzXzXzXzXzXzXzXzXzXzXzXzXzXzXzXzXzXzXzXzXzXzXzXzXzXzXzXzXzXzXzX",
"zXzXzXzXzXzXzXzXzXzXzXzXzXzXzXzXzXzXzXzXzXzXzXzXzXzXzXzXzXzXzXzXzXzXzXzXzXzXzXzXzXzXzXzXzXzXzXzXzXzXzXzXzXzXzXzXzXzXzXzXzXzXzXzX",
"zXzXzXzXzXzXzXzXzXzXzXzXzXzXzXzXzXzXzXzXzXzXzXzXzXzXzXzXzXzXzXzXzXzXzXzXzXzXzXzXzXzXzXzXzXzXzXzXzXzXzXzXzXzXzXzXzXzXzXzXzXzXzXzX",
"zXzXzXzXzXzXzXzXzXzXzXzXzXzXzXzXzXzXzXzXzXzXzXzXzXzXzXzXzXzXzXzXzXzXzXzXzXzXzXzXzXzXzXzXzXzXzXzXzXzXzXzXzXzXzXzXzXzXzXzXzXzXzXzX",
"zXzXzXzXzXzXzXzXzXzXzXzXzXzXzXzXzXzXzXzXzXzXzXzXzXzXzXzXzXzXzXzXzXzXzXzXzXzXzXzXzXzXzXzXzXzXzXzXzXzXzXzXzXzXzXzXzXzXzXzXzXzXzXzX",
"zXzXzXzXzXzXzXzXzXzXzXzXzXzXzXzXzXzXzXzXzXzXzXzXzXzXzXzXzXzXzXzXzXzXzXzXzXzXzXzXzXzXzXzXzXzXzXzXzXzXzXzXzXzXzXzXzXzXzXzXzXzXzXzX",
"zXzXzXzXzXzXzXzXzXzXzXzXzXzXzXzXzXzXzXzXzXzXzXzXzXzXzXzXzXzXzXzXzXzXzXzXzXzXzXzXzXzXzXzXzXzXzXzXzXzXzXzXzXzXzXzXzXzXzXzXzXzXzXzX",
"zXzXzXzXzXzXzXzXzXzXzXzXzXzXzXzXzXzXzXzXzXzXzXzXzXzXzXzXzXzXzXzXzXzXzXzXzXzXzXzXzXzXzXzXzXzXzXzXzXzXzXzXzXzXzXzXzXzXzXzXzXzXzXzX",
"zXzXzXzXzXzXzXzXzXzXzXzXzXzXzXzXzXzXzXzXzXzXzXzXzXzXzXzXzXzXzXzXzXzXzXzXzXzXzXzXzXzXzXzXzXzXzXzXzXzXzXzXzXzXzXzXzXzXzXzXzXzXzXzX",
"zXzXzXzXzXzXzXzXzXzXzXzXzXzXzXzXzXzXzXzXzXzXzXzXzXzXzXzXzXzXzXzXzXzXzXzXzXzXzXzXzXzXzXzXzXzXzXzXzXzXzXzXzXzXzXzXzXzXzXzXzXzXzXzX"
};
