/* XPM */
static char *cbda4805c6eb487de38fb3ab3f3fb754tUorYCPn5n1NM8O7[] = {
/* columns rows colors chars-per-pixel */
"64 64 14 1 ",
"  c #B44FA4",
". c black",
"X c #171815",
"o c #384E1D",
"O c #484848",
"+ c #3DA23F",
"@ c #4FBC44",
"# c #B0BF2D",
"$ c #FFED2E",
"% c #909090",
"& c #D1D5D1",
"* c #EAEAEA",
"= c #EFEFEF",
"- c white",
/* pixels */
"                                                                ",
"                                                                ",
"                            %%%%%%%                             ",
"                            .......                             ",
"                        %%%%%%%%%%%%%%%                         ",
"                        ...%-------O...                         ",
"                      %%&&&&-------&&&&%%                       ",
"                      .%---------------XX                       ",
"                    %%&&---------------&&%%                     ",
"                    .O------------------=.O                     ",
"                    .O------------------=.O                     ",
"                   &.O------------------=.O                     ",
"                  OO**-----&O&---%O*-----*&O%                   ",
"                  .O-------%.%---%.*------*.O                   ",
"                  .O-----&o%=----==%o*----*.O                   ",
"                  XO-----&X%-------OX*----*XO                   ",
"                Xo-----&X%-%X%---%X*-OX=----*X%                 ",
"                Xo-----&o%-%.%---%.*-Oo=----*.%                 ",
"                Xo---------%.%---%.*--------*.%                 ",
"                Xo---------&O&---%O*--------*.%                 ",
"                Xo--------------------------*.%                 ",
"                Xo---=&*---------------&&---*.%                 ",
"                Xo---&.%---------------XX---*.%                 ",
"                Xo---&.%---*&*---&&=---XX---*.%                 ",
"                Xo---&.%---%.%---%.*---XX---*.%                 ",
"                %%&&-*%%&&-&%%&&&%%=-&&%%-=&&%&                 ",
"                  .O---&.%---%...&---O.=--*.O                   ",
"                  %%%&-&.O%&-&%%%*-&%O.=-%%%&                   ",
"                    .O-&...%-------O...==.O                     ",
"                    %%%%.oo%&&&&&&&+oX.%%%&                     ",
"                     &...o+++++++++++X..X                       ",
"                    %%+@####+++++++####++%%                     ",
"                    .o+#$$$#+++++++$$$$@+.O                     ",
"                  %%++++o###$$$$$$$##oo++++%%                   ",
"                  .X++++.o+#$$$$$$$@+X.++++.O                   ",
"                  .o$$$#.o+@@@@@@@@++X.#$$#.O                   ",
"                  .o$$$#.o+++++++++++X.$$$$.O                   ",
"                OO++@@o#$$$$$$$$$$$$$$$oo@@++O%                 ",
"                XX++++.#$$$$$$$$$$$$$$$oX++++.%                 ",
"                XX$$$#.o@@@@@@@@@@@@@@@Xo$$$#.%                 ",
"                XX$$$#.o+++++++++++++++Xo$$$#.%                 ",
"                X......o+++++++++++++++X......%                 ",
"                XXOOOO.o+++++++++++++++XXOOOO.%                 ",
"                Xo---&..................X---*.%                 ",
"                %%***&..................X&**&O%                 ",
"                =*..........................O                   ",
"                  %%%%%O...............%%%%%%                   ",
"                  =--=*&...............*---**                   ",
"                  -***&%...............&&*=--                   ",
"                  -**&..................X*=--                   ",
"                  =*%%.O%%%%%O...%%%%%%XX%&--                   ",
"                  =*...%-----%...&-----X..O=*                   ",
"                  %%%%%&---&%%%%%%%=---&%%%%%                   ",
"                  .O-------%.%==-%.*------*.O                   ",
"                  .o%%%%%%%%       %%%%%%%%.O                   ",
"                  .........%       O........O                   ",
"                  &&&&&&&&&&       &&&&&&&&&&                   ",
"                                                                ",
"                                                                ",
"                                                                ",
"                                                                ",
"                                                                ",
"                                                                ",
"                                                                "
};
