/* XPM */
static char *xpm_[] = {
/* columns rows colors chars-per-pixel */
"64 64 24 1 ",
"  c #130003",
". c #140003",
"X c #130004",
"o c #3C110C",
"O c #3C110D",
"+ c #634825",
"@ c #7C707E",
"# c #7D707E",
"$ c #7D717E",
"% c #7D717F",
"& c #7E717E",
"* c #7D727E",
"= c #7D727F",
"- c #7E727E",
"; c #996D0C",
": c #FFCB0D",
"> c #E70BF8",
", c #58B5DE",
"< c #66A3DF",
"1 c #66A3E0",
"2 c #66A4E0",
"3 c #E6E6E6",
"4 c #E7E7E7",
"5 c #B44FA4",
/* pixels */
"5555555555555555555555555555555555555555555555555555555555555555",
"5555555555555555555555555555555555555555555555555555555555555555",
"55555555555555555555531$$$$$$$$$$$$$$$$$555555555555555555555555",
"555555555555555555553$$++++++++++++++++$155555555555555555555555",
"55555555555555555555$$+OOOOOOOOOOOOOOOO+$13555555555555555555555",
"5555555555555555555$$+OOOOOOOOOOOOOOOOOOO+$555555555555555555555",
"555555555555555555$++OOOOOOOOOOOOOOOOOOOOO+$55555555555555555555",
"55555555555555555$+OOOOOOOOOOOOOOOOOOOOOOOO+$5555555555555555555",
"5555555555555555$$OOOOOOOOOOOOOOOOOOOOOOOOO++$555555555555555555",
"555555555555555$$+OOOOOOOOOOOOOOOOOOOOOOOOOOO$555555555555555555",
"555555555555555$+OOOOOOOOOOOOOOO++OOOOOOOOOOO+$55555555555555555",
"555555555555551$+OOO++;++OOOOOO+;;+OOOOOOOOOOO++$555555555555555",
"55555555555551$+OOOO;:::+OOOOOO;:;;+OOOOOOOOOOO+$555555555555555",
"5555555555555$+OOOO;;:::;;OOO+;;::;+OO;;+OOOOOO+$555555555555555",
"5555555555555$+OOO+::::::;+O+;::::;+O+;:;;OOOOO+$555555555555555",
"5555555555555$+OOO+:::::::;+;::::::;+;:::;;+OOO+$555555555555555",
"5555555555555$+OOO+:::::::;;::::::::;;::::;+O+++$$55555555555555",
"5555555555553$+OOO+::::::::::::::::::::::::;+;;++$$5555555555555",
"555555555555$$+OOO+::::::::::::::::::::::::;;:;+O+$5555555555555",
"55555555555$OOOOOX+::::::::::::::::::::::::;:::;++$5555555555555",
"55555555555$OOOOOO+::;;;;:::::::::;;;;::::::::;;++$5555555555555",
"55555555555$OOOO+;::::::::::::::::::::::::::::;+O+$5555555555555",
"55555555555$OOOO+;:::::::::::::::::::::::::::;++O+$5555555555555",
"55555555555$OOOO;;:::::::::::::::::::::::::::+OOO+$5555555555555",
"55555555555$OOO+;:::::::::::;;;;::::::::::::;OOOO+$5555555555555",
"55555555555$OOOO;;::::::::::;;;;:::::::::::;OOOOO+$5555555555555",
"55555555555$OOOOO+;:::::::::::::::::::;+++++OOOOO+$5555555555555",
"55555555555$OOOOO +;::::::::::::::::::;O OOOOOOOO+$5555555555555",
"55555555555$+O+++OO+;;;;:::::::::::::;+OOOOOO++O+$$5555555555555",
"55555555555$$+5=$$OO+++;::::::::::::;+OOOOO++$$+$$$5555555555555",
"555555555555$=5555O.X.O+;;;;;::::::;+O OOOO+$55$$555555555555555",
"55555555555555555555555555$$+;::::;++555555555555555555555555555",
"555555555555555555555555555$$;::::;$$555555555555555555555555555",
"555555555555555555555555555$$;;::;;$$555555555555555555555555555",
"55555555555555555555555555$$$+;;;;+$$$$$555555555555555555555555",
"55555555555555555555555555$$$+O++O+$$$+$555555555555555555555555",
"55555555555555555555551111$$$OOOOOO$$$$+$55555555555555555555555",
"55555555555555555551$+++$$11$$++++$$11$++++$15555555555555555555",
"555555555555555555$11$$$1111111111111111$$$11$555555555555555555",
"555555555555555551$11$$$1111111111111111$$$$1$155555555555555555",
"5555555555555555$$1$$>>>>>>>>>>>>>>>>>>>$$+$$1$$5555555555555555",
"555555555555555$$$1$$$>>11>>>111>>111>>1$$$$$1$$$555555555555555",
"555555555555555$$11$$$11111>11,1111111111$$$$11$$555555555555555",
"555555555555555$$$1$$1111111111111111111111$$1$$1555555555555555",
"5555555555555551$$$+$>>>>>>>>>>>>>>>>>>>>>>$+$$$$555555555555555",
"5555555555555551$;;;$>>>>>>>>>>>>>>>>>>>>>>$;;;$$555555555555555",
"555555555555555$$;:;$1111111111111111111111$;:;$1555555555555555",
"5555555555555551$;;;$1111111111111111111111$;;;$$555555555555555",
"5555555555555551$+++$1111111111111111111111$+++$$555555555555555",
"5555555555555555$$$$$1111111111111111111111$$$$55555555555555555",
"5555555555555555555$$1111111$$$$$1111111112$$5555555555555555555",
"55555555555555555551$111111$$+$$+$111111112$55555555555555555555",
"55555555555555555553$111111$$$33$$111111111$55555555555555555555",
"55555555555555555551$$$$$$$$$$33$$$$$$$$$$$$55555555555555555555",
"55555555555555555551$$$$$$$$$$33$+$$$$$$$$$$55555555555555555555",
"55555555555555555553$$$$+O+++$33$O++++O+$$$$55555555555555555555",
"555555555555555555553333$OOO+$33$OOOOOO$333555555555555555555555",
"555555555555555555553333$OOO+$33$.OOOOO$333555555555555555555555",
"5555555555555555555552$$+++++$33$O++++++$$$555555555555555555555",
"5555555555555555555555555555555555555555555555555555555555555555",
"5555555555555555555555555555555555555555555555555555555555555555",
"5555555555555555555555555555555555555555555555555555555555555555",
"5555555555555555555555555555555555555555555555555555555555555555",
"5555555555555555555555555555555555555555555555555555555555555555"
};
